<svg version="1.1" viewBox="0 0 56 56" xmlns="http://www.w3.org/2000/svg" xmlns:xlink="http://www.w3.org/1999/xlink">
    <defs>
        <linearGradient id="c-1" x2=".044553693" y1="31.885" y2="46.256767" gradientTransform="matrix(2.2627417 -2.2627417 1.212183 1.212183 -32.172479 -.970852)" gradientUnits="userSpaceOnUse">
            <stop offset="0"/>
            <stop stop-opacity="0" offset="1"/>
        </linearGradient>
        <linearGradient id="c-3" x2=".044551823" y1="31.885" y2="39.815746" gradientTransform="matrix(2.2627413,-2.2627413,1.3131982,1.3131982,-11.386776,-4.1851575)" gradientUnits="userSpaceOnUse">
            <stop offset="0"/>
            <stop stop-opacity="0" offset="1"/>
        </linearGradient>
    </defs>
    <g>
        <rect x="4" y="16" width="48" height="25" ry="3.7878788" fill="#a76c21" stroke-width=".870388"/>
        <rect x="12" y="13" width="8" height="4.9999995" rx="0" ry="1" fill="#a05a2c" stroke-width="2.23198"/>
        <rect x="36" y="13" width="8" height="4.9999995" rx="0" ry="1" fill="#a05a2c" stroke-width="2.23198"/>
        <rect x="4" y="15.99611" width="48" height="24.00778" ry="3.00389" fill="#c49b63" stroke-width=".852942"/>
    </g>
    <path d="M 10.343145,33.656855 21.656855,22.343145 40,41 H 19 Z" fill="url(#c-1)" opacity=".2" stroke-linejoin="bevel" stroke-width="4.68432"/>
    <circle cx="16" cy="28" r="8" fill="#d4d4d4" stroke-width="1.10938"/>
    <path d="m34.343146 33.656854 11.313708-11.313708 6.343146 6.656854v9.546875-0.179688c0 3.078125-2.039065 2.629613-4 2.632813h-6z" fill="url(#c-3)" opacity=".2" stroke-linejoin="bevel" stroke-width="4.8756"/>
    <circle cx="40" cy="28" r="8" fill="#d4d4d4" stroke-width="1.10938"/>
    <rect x="15" y="21" width="2" height="7" ry="1" fill="#1a1a1a" fill-rule="evenodd" stroke-width="4.52553"/>
    <rect transform="rotate(49.274154)" x="46.317135" y="-19.045275" width="2" height="7" ry="1" fill="#1a1a1a" fill-rule="evenodd" stroke-width="4.52553"/>
</svg>
